<?xml version="1.0" encoding="UTF-8" standalone="no"?>
<svg xmlns="http://www.w3.org/2000/svg" id="donjiLijevi" style="float:left; width:25%; height:100%; background: white;" preserveAspectRatio="none" viewBox="0 0 256 50"><polygon points="256,50 238,50 256,0" fill="rgb(170,255,170)"></polygon><polygon points="243,50 225,50 256,0" fill="rgb(170,252,174)"></polygon><polygon points="229,50 212,49 256,0" fill="rgb(170,249,178)"></polygon><polygon points="216,49 199,49 256,0" fill="rgb(170,247,182)"></polygon><polygon points="203,49 186,48 256,0" fill="rgb(170,244,186)"></polygon><polygon points="190,48 173,47 256,0" fill="rgb(170,241,190)"></polygon><polygon points="177,48 160,46 256,0" fill="rgb(170,238,194)"></polygon><polygon points="164,47 148,45 256,0" fill="rgb(170,235,198)"></polygon><polygon points="152,46 136,44 256,0" fill="rgb(170,232,202)"></polygon><polygon points="140,45 124,43 256,0" fill="rgb(170,230,206)"></polygon><polygon points="128,43 113,41 256,0" fill="rgb(170,227,210)"></polygon><polygon points="117,42 102,40 256,0" fill="rgb(170,224,214)"></polygon><polygon points="106,40 92,38 256,0" fill="rgb(170,221,218)"></polygon><polygon points="95,39 81,37 256,0" fill="rgb(170,218,222)"></polygon><polygon points="85,37 72,35 256,0" fill="rgb(170,215,226)"></polygon><polygon points="75,35 63,33 256,0" fill="rgb(170,213,230)"></polygon><polygon points="66,33 54,31 256,0" fill="rgb(170,210,234)"></polygon><polygon points="57,31 46,29 256,0" fill="rgb(170,207,238)"></polygon><polygon points="49,29 39,27 256,0" fill="rgb(170,204,242)"></polygon><polygon points="41,27 32,24 256,0" fill="rgb(170,201,246)"></polygon><polygon points="34,25 26,22 256,0" fill="rgb(170,198,250)"></polygon><polygon points="28,23 20,20 256,0" fill="rgb(170,196,254)"></polygon><polygon points="22,20 15,17 256,0" fill="rgb(170,193,255)"></polygon><polygon points="17,18 11,15 256,0" fill="rgb(170,190,255)"></polygon><polygon points="13,15 8,12 256,0" fill="rgb(170,187,255)"></polygon><polygon points="9,13 5,10 256,0" fill="rgb(170,184,255)"></polygon><polygon points="6,10 3,7 256,0" fill="rgb(170,181,255)"></polygon><polygon points="3,8 1,4 256,0" fill="rgb(170,179,255)"></polygon><polygon points="1,5 0,2 256,0" fill="rgb(170,176,255)"></polygon><polygon points="0,3 0,-1 256,0" fill="rgb(170,173,255)"></polygon></svg>