<?xml version="1.0" encoding="UTF-8" standalone="no"?>
<svg xmlns="http://www.w3.org/2000/svg" id="gornjiDesni" style="float:right; width:25%; height:200px; background:white;" preserveAspectRatio="none" viewBox="0 0 256 200"><polygon points="256,200 255,186 0,200" fill="rgb(255,255,170)"></polygon><polygon points="256,190 254,176 0,200" fill="rgb(255,252,170)"></polygon><polygon points="255,179 252,165 0,200" fill="rgb(255,249,170)"></polygon><polygon points="253,169 249,155 0,200" fill="rgb(255,247,170)"></polygon><polygon points="250,158 246,145 0,200" fill="rgb(255,244,170)"></polygon><polygon points="247,148 242,135 0,200" fill="rgb(255,241,170)"></polygon><polygon points="243,138 237,125 0,200" fill="rgb(255,238,170)"></polygon><polygon points="239,128 232,115 0,200" fill="rgb(255,235,170)"></polygon><polygon points="234,119 226,106 0,200" fill="rgb(255,232,170)"></polygon><polygon points="228,109 219,97 0,200" fill="rgb(255,230,170)"></polygon><polygon points="222,100 212,88 0,200" fill="rgb(255,227,170)"></polygon><polygon points="215,91 204,80 0,200" fill="rgb(255,224,170)"></polygon><polygon points="207,82 196,71 0,200" fill="rgb(255,221,170)"></polygon><polygon points="199,74 187,64 0,200" fill="rgb(255,218,170)"></polygon><polygon points="190,66 178,56 0,200" fill="rgb(255,215,170)"></polygon><polygon points="181,59 168,49 0,200" fill="rgb(255,213,170)"></polygon><polygon points="171,51 158,42 0,200" fill="rgb(255,210,170)"></polygon><polygon points="161,45 147,36 0,200" fill="rgb(255,207,170)"></polygon><polygon points="150,38 136,30 0,200" fill="rgb(255,204,170)"></polygon><polygon points="139,32 124,25 0,200" fill="rgb(255,201,170)"></polygon><polygon points="128,27 112,20 0,200" fill="rgb(255,198,170)"></polygon><polygon points="116,22 100,16 0,200" fill="rgb(255,196,170)"></polygon><polygon points="104,17 88,12 0,200" fill="rgb(255,193,170)"></polygon><polygon points="92,13 75,9 0,200" fill="rgb(255,190,170)"></polygon><polygon points="79,10 62,6 0,200" fill="rgb(255,187,170)"></polygon><polygon points="66,7 49,4 0,200" fill="rgb(255,184,170)"></polygon><polygon points="53,4 36,2 0,200" fill="rgb(255,181,170)"></polygon><polygon points="40,2 22,1 0,200" fill="rgb(255,179,170)"></polygon><polygon points="27,1 9,0 0,200" fill="rgb(255,176,170)"></polygon><polygon points="13,0 -4,0 0,200" fill="rgb(255,173,170)"></polygon></svg>