<?xml version="1.0" encoding="UTF-8" standalone="no"?>
<svg xmlns="http://www.w3.org/2000/svg" id="gornjiLijevi" style="float:left; width:25%; height:200px; background:white;" preserveAspectRatio="none" viewBox="0 0 256 200">
    <polygon points="256,0 238,0 256,200" fill="rgb(255,170,170)"></polygon>
    <polygon points="243,0 225,1 256,200" fill="rgb(252,170,173)"></polygon>
    <polygon points="229,1 212,3 256,200" fill="rgb(249,170,176)"></polygon>
    <polygon points="216,2 199,5 256,200" fill="rgb(247,170,178)"></polygon>
    <polygon points="203,4 186,8 256,200" fill="rgb(244,170,181)"></polygon>
    <polygon points="190,7 173,11 256,200" fill="rgb(241,170,184)"></polygon>
    <polygon points="177,10 160,15 256,200" fill="rgb(238,170,187)"></polygon>
    <polygon points="164,13 148,19 256,200" fill="rgb(235,170,190)"></polygon>
    <polygon points="152,17 136,23 256,200" fill="rgb(232,170,193)"></polygon>
    <polygon points="140,22 124,29 256,200" fill="rgb(230,170,195)"></polygon>
    <polygon points="128,27 113,34 256,200" fill="rgb(227,170,198)"></polygon>
    <polygon points="117,32 102,40 256,200" fill="rgb(224,170,201)"></polygon>
    <polygon points="106,38 92,47 256,200" fill="rgb(221,170,204)"></polygon>
    <polygon points="95,45 81,54 256,200" fill="rgb(218,170,207)"></polygon>
    <polygon points="85,51 72,61 256,200" fill="rgb(215,170,210)"></polygon>
    <polygon points="75,59 63,69 256,200" fill="rgb(213,170,212)"></polygon>
    <polygon points="66,66 54,77 256,200" fill="rgb(210,170,215)"></polygon>
    <polygon points="57,74 46,85 256,200" fill="rgb(207,170,218)"></polygon>
    <polygon points="49,82 39,94 256,200" fill="rgb(204,170,221)"></polygon>
    <polygon points="41,91 32,103 256,200" fill="rgb(201,170,224)"></polygon>
    <polygon points="34,100 26,112 256,200" fill="rgb(198,170,227)"></polygon>
    <polygon points="28,109 20,122 256,200" fill="rgb(196,170,229)"></polygon>
    <polygon points="22,119 15,132 256,200" fill="rgb(193,170,232)"></polygon>
    <polygon points="17,128 11,141 256,200" fill="rgb(190,170,235)"></polygon>
    <polygon points="13,138 8,152 256,200" fill="rgb(187,170,238)"></polygon>
    <polygon points="9,148 5,162 256,200" fill="rgb(184,170,241)"></polygon>
    <polygon points="6,158 3,172 256,200" fill="rgb(181,170,244)"></polygon>
    <polygon points="3,169 1,182 256,200" fill="rgb(179,170,246)"></polygon>
    <polygon points="1,179 0,193 256,200" fill="rgb(176,170,249)"></polygon>
    <polygon points="0,189 0,203 256,200" fill="rgb(173,170,252)"></polygon>
</svg>