<svg version="1.2" width="816" height="1056" viewBox="0 0 21590 27940" preserveAspectRatio="xMidYMid" fill-rule="evenodd" stroke-width="28.222" stroke-linejoin="round" xml:space="preserve" fill="#fff" xmlns="http://www.w3.org/2000/svg"><rect width="100%" height="100%"/><defs class="ClipPathGroup"><clipPath id="a" clipPathUnits="userSpaceOnUse"><path d="M0 0h21590v27940H0z"/></clipPath></defs><g class="SlideGroup"><g class="Slide" clip-path="url(#a)"><g class="Page"><g class="com.sun.star.drawing.TextShape"><path class="BoundingBox" fill="none" d="M3540 2587h14923v2140H3540z"/><text class="TextShape"><tspan class="TextParagraph" font-family="Liberation Sans, sans-serif" font-size="847" font-weight="400"><tspan class="TextPosition" x="5214" y="3478"><tspan fill="#000">Why vaccines work and masks </tspan></tspan><tspan class="TextPosition" x="7566" y="4422"><tspan fill="#000">(probably) do not?</tspan></tspan></tspan></text></g><g class="com.sun.star.drawing.CustomShape"><path class="BoundingBox" fill="none" d="M7030 5444h7307v5084H7030z"/><path fill="#FFF" d="m7031 7985 3652-2540 3652 2540-3652 2541-3652-2541z"/><path fill="none" stroke="#000" d="m7031 7985 3652-2540 3652 2540-3652 2541-3652-2541z"/><text class="TextShape"><tspan class="TextParagraph" font-family="Liberation Sans, sans-serif" font-size="635" font-weight="400"><tspan class="TextPosition" x="8219" y="7850"><tspan fill="#000">Are you coughing</tspan></tspan></tspan><tspan class="TextParagraph" font-family="Liberation Sans, sans-serif" font-size="635" font-weight="400"><tspan class="TextPosition" x="8782" y="8561"><tspan fill="#000"> </tspan><tspan fill="#000">or sneezing?</tspan></tspan></tspan></text></g><g class="com.sun.star.drawing.CustomShape"><path class="BoundingBox" fill="none" d="M1316 12746h6671v4130H1316z"/><path fill="none" stroke="#000" d="M4651 16874H1317v-4127h6668v4127H4651z"/><text class="TextShape"><tspan class="TextParagraph" font-family="Liberation Sans, sans-serif" font-size="635" font-weight="400"><tspan class="TextPosition" x="1387" y="13965"><tspan fill="#000">You are unlikely to emit</tspan></tspan></tspan><tspan class="TextParagraph" font-family="Liberation Sans, sans-serif" font-size="635" font-weight="400"><tspan class="TextPosition" x="1940" y="14676"><tspan fill="#000"> </tspan><tspan fill="#000">enough droplets to</tspan></tspan></tspan><tspan class="TextParagraph" font-family="Liberation Sans, sans-serif" font-size="635" font-weight="400"><tspan class="TextPosition" x="1673" y="15387"><tspan fill="#000"> </tspan><tspan fill="#000">infect somebody just</tspan></tspan></tspan><tspan class="TextParagraph" font-family="Liberation Sans, sans-serif" font-size="635" font-weight="400"><tspan class="TextPosition" x="2731" y="16098"><tspan fill="#000"> </tspan><tspan fill="#000">by breathing.</tspan></tspan></tspan></text></g><g class="com.sun.star.drawing.LineShape"><path class="BoundingBox" fill="none" d="M3856 7984h3178v3H3856z"/><path fill="none" stroke="#000" d="M7032 7985H3857"/></g><g class="com.sun.star.drawing.LineShape"><path class="BoundingBox" fill="none" d="M3707 7984h301v4765h-301z"/><path fill="none" stroke="#000" d="M3857 7985v4483"/><path fill="#000" d="m4007 12448-150 300-150-300h300z"/></g><g class="com.sun.star.drawing.TextShape"><path class="BoundingBox" fill="none" d="M5762 7032h1206v1281H5762z"/><text class="TextShape"><tspan class="TextParagraph" font-family="Liberation Sans, sans-serif" font-size="635" font-weight="400"><tspan class="TextPosition" x="6012" y="7733"><tspan fill="#000">no</tspan></tspan></tspan></text></g><g class="com.sun.star.drawing.LineShape"><path class="BoundingBox" fill="none" d="M14334 7984h3178v3h-3178z"/><path fill="none" stroke="#000" d="M14335 7985h3175"/></g><g class="com.sun.star.drawing.LineShape"><path class="BoundingBox" fill="none" d="M17360 7984h301v4447h-301z"/><path fill="none" stroke="#000" d="M17510 7985v4165"/><path fill="#000" d="m17660 12130-150 300-150-300h300z"/></g><g class="com.sun.star.drawing.CustomShape"><path class="BoundingBox" fill="none" d="M12429 12428h7624v4449h-7624z"/><path fill="none" stroke="#000" d="M12430 12429h7621v4446h-7621v-4446z"/><text class="TextShape"><tspan class="TextParagraph" font-family="Liberation Sans, sans-serif" font-size="635" font-weight="400"><tspan class="TextPosition" x="13262" y="13450"><tspan fill="#000">Any mask that allows</tspan></tspan></tspan><tspan class="TextParagraph" font-family="Liberation Sans, sans-serif" font-size="635" font-weight="400"><tspan class="TextPosition" x="13228" y="14161"><tspan fill="#000"> </tspan><tspan fill="#000">you to breathe easily</tspan></tspan></tspan><tspan class="TextParagraph" font-family="Liberation Sans, sans-serif" font-size="635" font-weight="400"><tspan class="TextPosition" x="13353" y="14872"><tspan fill="#000"> </tspan><tspan fill="#000">will not stop enough</tspan></tspan></tspan><tspan class="TextParagraph" font-family="Liberation Sans, sans-serif" font-size="635" font-weight="400"><tspan class="TextPosition" x="12858" y="15583"><tspan fill="#000"> </tspan><tspan fill="#000">droplets so that you will</tspan></tspan></tspan><tspan class="TextParagraph" font-family="Liberation Sans, sans-serif" font-size="635" font-weight="400"><tspan class="TextPosition" x="13338" y="16294"><tspan fill="#000">not infect somebody.</tspan></tspan></tspan></text></g><g class="com.sun.star.drawing.TextShape"><path class="BoundingBox" fill="none" d="M14335 7032h1489v963h-1489z"/><text class="TextShape"><tspan class="TextParagraph" font-family="Liberation Sans, sans-serif" font-size="635" font-weight="400"><tspan class="TextPosition" x="14585" y="7733"><tspan fill="#000">yes</tspan></tspan></tspan></text></g><g class="com.sun.star.drawing.CustomShape"><path class="BoundingBox" fill="none" d="M6396 18144h7942v3814H6396z"/><path fill="none" stroke="#000" d="M6397 18145h7939v3811H6397v-3811z"/><text class="TextShape"><tspan class="TextParagraph" font-family="Liberation Sans, sans-serif" font-size="635" font-weight="400"><tspan class="TextPosition" x="7032" y="19560"><tspan fill="#000">You are unlikely to save</tspan></tspan></tspan><tspan class="TextParagraph" font-family="Liberation Sans, sans-serif" font-size="635" font-weight="400"><tspan class="TextPosition" x="7286" y="20271"><tspan fill="#000">anybody by wearing a</tspan></tspan></tspan><tspan class="TextParagraph" font-family="Liberation Sans, sans-serif" font-size="635" font-weight="400"><tspan class="TextPosition" x="9342" y="20982"><tspan fill="#000"> </tspan><tspan fill="#000">mask. </tspan></tspan></tspan></text></g><g class="com.sun.star.drawing.LineShape"><path class="BoundingBox" fill="none" d="M4491 16874h3v3178h-3z"/><path fill="none" stroke="#000" d="M4492 16875v3175"/></g><g class="com.sun.star.drawing.LineShape"><path class="BoundingBox" fill="none" d="M17826 16874h3v3178h-3z"/><path fill="none" stroke="#000" d="M17827 16875v3175"/></g><g class="com.sun.star.drawing.LineShape"><path class="BoundingBox" fill="none" d="M4491 19900h1907v301H4491z"/><path fill="none" stroke="#000" d="M4492 20050h1625"/><path fill="#000" d="m6097 19900 300 150-300 150v-300z"/></g><g class="com.sun.star.drawing.LineShape"><path class="BoundingBox" fill="none" d="M14335 19900h3494v301h-3494z"/><path fill="none" stroke="#000" d="M17827 20050h-3212"/><path fill="#000" d="m14635 20200-300-150 300-150v300z"/></g><g class="com.sun.star.drawing.CustomShape"><path class="BoundingBox" fill="none" d="M14226 6990h1671v1037h-1671z"/><path fill="none" stroke="#000" stroke-width="81" d="M15855 7508c0 84-37 166-106 239-70 72-170 132-291 174s-258 64-397 64-276-22-397-64-221-102-291-174c-69-73-106-155-106-239s37-166 106-238c70-73 170-133 291-175s258-64 397-64 276 22 397 64 221 102 291 175c69 72 106 154 106 238z"/></g><g class="com.sun.star.drawing.OpenFreeHandShape"><path class="BoundingBox" fill="none" d="M10687 7930h6237v15019h-6237z"/><path fill="none" stroke="#000" stroke-width="81" d="M15071 7971c-283 356-659 606-1004 897-328 276-654 543-1005 796-347 249-666 536-1005 796-329 253-629 565-804 964-148 337-212 699-368 1028-160 339-71 681-134 1029-60 329 9 669 67 996 61 342 54 691 134 1028 79 334 57 673 201 996 154 346 412 776 837 763 386-11 718 187 1105 166 364-20 715 103 1072 166 365 65 698 262 1072 299 359 35 741 190 904 564 149 342 305 680 436 1029 124 331 188 681 234 1029 43 329 52 661 67 996 16 360-87 715-301 996l-335 199-335 133-235 66"/></g><g class="com.sun.star.drawing.CustomShape"><path class="BoundingBox" fill="none" d="M11118 22865h9291v3259h-9291z"/><path fill="none" stroke="#000" stroke-width="81" d="M20367 24494c0 279-213 553-617 794s-985 442-1685 581c-700 140-1494 213-2302 213s-1602-73-2302-213c-700-139-1281-340-1685-581s-617-515-617-794 213-553 617-794 985-442 1685-581c700-140 1494-213 2302-213s1602 73 2302 213c700 139 1281 340 1685 581s617 515 617 794z"/><text class="TextShape"><tspan class="TextParagraph" font-family="Liberation Sans, sans-serif" font-size="635" font-weight="400"><tspan class="TextPosition" x="12173" y="24359"><tspan fill="#000">A vaccine is making THIS</tspan></tspan></tspan><tspan class="TextParagraph" font-family="Liberation Sans, sans-serif" font-size="635" font-weight="400"><tspan class="TextPosition" x="12105" y="25070"><tspan fill="#000">more than 50% less likely.</tspan></tspan></tspan></text></g><g class="com.sun.star.drawing.TextShape"><path class="BoundingBox" fill="none" d="M1000 22590h9843v4128H1000z"/><text class="TextShape"><tspan class="TextParagraph" font-family="Liberation Sans, sans-serif" font-size="635" font-weight="400"><tspan class="TextPosition" x="1250" y="23291"><tspan fill="#000">Politicians can perhaps force </tspan></tspan><tspan class="TextPosition" x="1250" y="24002"><tspan fill="#000">people to wear masks (usually </tspan></tspan><tspan class="TextPosition" x="1250" y="24713"><tspan fill="#000">those are dirty masks not </tspan></tspan><tspan class="TextPosition" x="1250" y="25424"><tspan fill="#000">covering the nose), but only </tspan></tspan><tspan class="TextPosition" x="1250" y="26135"><tspan fill="#000">scientists can make vaccines.</tspan></tspan></tspan></text></g></g></g></g></svg>